<svg xmlns="http://www.w3.org/2000/svg" width="480" height="480" preserveAspectRatio="xMidYMid meet" version="1.0" viewBox="0 0 360 360"><metadata>Created by potrace 1.11, written by Peter Selinger 2001-2013</metadata><g fill="#000" stroke="none"><path d="M0 1800 l0 -1800 1800 0 1800 0 0 1800 0 1800 -1800 0 -1800 0 0 -1800z m3200 0 l0 -1400 -1400 0 -1400 0 0 1400 0 1400 1400 0 1400 0 0 -1400z" transform="translate(0.000000,360.000000) scale(0.100000,-0.100000)"/><path d="M800 1800 l0 -1000 1000 0 1000 0 0 200 0 200 -800 0 -800 0 0 800 0 800 -200 0 -200 0 0 -1000z" transform="translate(0.000000,360.000000) scale(0.100000,-0.100000)"/><path d="M1600 2200 l0 -600 600 0 600 0 0 600 0 600 -200 0 -200 0 0 -400 0 -400 -200 0 -200 0 0 400 0 400 -200 0 -200 0 0 -600z" transform="translate(0.000000,360.000000) scale(0.100000,-0.100000)"/></g></svg>